<mxfile host="app.diagrams.net" modified="2023-06-01T16:15:28.950Z" agent="Mozilla/5.0 (Windows NT 10.0; Win64; x64) AppleWebKit/537.36 (KHTML, like Gecko) Chrome/113.0.0.0 Safari/537.36" etag="WZD3fZL_kTFdTpRVl8N7" version="21.3.6" type="github">
  <diagram id="6a731a19-8d31-9384-78a2-239565b7b9f0" name="Page-1">
    <mxGraphModel dx="833" dy="2025" grid="1" gridSize="10" guides="1" tooltips="1" connect="1" arrows="1" fold="1" page="1" pageScale="1" pageWidth="827" pageHeight="1169" background="none" math="0" shadow="0">
      <root>
        <mxCell id="0" />
        <mxCell id="1" parent="0" />
        <mxCell id="979" value="" style="whiteSpace=wrap;html=1;fontFamily=Verdana;fontSize=24;align=center;fillColor=#f5f5f5;gradientColor=#b3b3b3;strokeColor=#666666;" parent="1" vertex="1">
          <mxGeometry x="854" y="31" width="776" height="1700" as="geometry" />
        </mxCell>
        <mxCell id="980" value="" style="ellipse;whiteSpace=wrap;html=1;fontFamily=Verdana;fontSize=16;fontColor=#DDDDDD;strokeColor=none;fillColor=#282828;" parent="1" vertex="1">
          <mxGeometry x="896" y="271" width="350" height="350" as="geometry" />
        </mxCell>
        <mxCell id="981" value="" style="ellipse;whiteSpace=wrap;html=1;fontFamily=Verdana;fontSize=16;fontColor=#DDDDDD;strokeColor=none;fillColor=#282828;" parent="1" vertex="1">
          <mxGeometry x="896" y="764" width="350" height="350" as="geometry" />
        </mxCell>
        <mxCell id="982" value="" style="ellipse;whiteSpace=wrap;html=1;fontFamily=Verdana;fontSize=16;fontColor=#DDDDDD;strokeColor=none;fillColor=#282828;" parent="1" vertex="1">
          <mxGeometry x="896" y="1256" width="350" height="350" as="geometry" />
        </mxCell>
        <mxCell id="983" value="" style="ellipse;whiteSpace=wrap;html=1;fontFamily=Verdana;fontSize=16;fontColor=#DDDDDD;strokeColor=none;fillColor=#282828;" parent="1" vertex="1">
          <mxGeometry x="1223" y="1010" width="350" height="350" as="geometry" />
        </mxCell>
        <mxCell id="984" value="" style="ellipse;whiteSpace=wrap;html=1;fontFamily=Verdana;fontSize=16;fontColor=#DDDDDD;strokeColor=none;fillColor=#282828;" parent="1" vertex="1">
          <mxGeometry x="1223" y="518" width="350" height="350" as="geometry" />
        </mxCell>
        <mxCell id="985" value="区块链爱好者" style="text;html=1;resizable=0;points=[];autosize=1;align=left;verticalAlign=top;spacingTop=-4;fontSize=24;fontFamily=Verdana;fontColor=#DDDDDD;fontStyle=1" parent="1" vertex="1">
          <mxGeometry x="948.9999999999999" y="386" width="170" height="40" as="geometry" />
        </mxCell>
        <mxCell id="986" value="1&amp;nbsp;" style="text;html=1;resizable=0;points=[];autosize=1;align=left;verticalAlign=top;spacingTop=-4;fontSize=100;fontFamily=Verdana;fontColor=#F18808;fontStyle=1" parent="1" vertex="1">
          <mxGeometry x="873" y="309" width="110" height="120" as="geometry" />
        </mxCell>
        <mxCell id="987" value="2" style="text;html=1;resizable=0;points=[];autosize=1;align=left;verticalAlign=top;spacingTop=-4;fontSize=100;fontFamily=Verdana;fontColor=#F18808;fontStyle=1" parent="1" vertex="1">
          <mxGeometry x="1194" y="531" width="74" height="120" as="geometry" />
        </mxCell>
        <mxCell id="988" value="3" style="text;html=1;resizable=0;points=[];autosize=1;align=left;verticalAlign=top;spacingTop=-4;fontSize=100;fontFamily=Verdana;fontColor=#F18808;fontStyle=1" parent="1" vertex="1">
          <mxGeometry x="875" y="799" width="74" height="120" as="geometry" />
        </mxCell>
        <mxCell id="989" value="4" style="text;html=1;resizable=0;points=[];autosize=1;align=left;verticalAlign=top;spacingTop=-4;fontSize=100;fontFamily=Verdana;fontColor=#F18808;fontStyle=1" parent="1" vertex="1">
          <mxGeometry x="1199" y="1029" width="74" height="120" as="geometry" />
        </mxCell>
        <mxCell id="990" value="5" style="text;html=1;resizable=0;points=[];autosize=1;align=left;verticalAlign=top;spacingTop=-4;fontSize=100;fontFamily=Verdana;fontColor=#F18808;fontStyle=1" parent="1" vertex="1">
          <mxGeometry x="874" y="1251" width="74" height="120" as="geometry" />
        </mxCell>
        <mxCell id="991" value="&lt;div style=&quot;line-height: 120%&quot;&gt;&lt;font style=&quot;line-height: 120%&quot;&gt;&lt;div&gt;&lt;font color=&quot;#ffffff&quot;&gt;数字艺术收藏家、加密游戏玩家、&lt;/font&gt;&lt;/div&gt;&lt;div&gt;&lt;font color=&quot;#ffffff&quot;&gt;区块链投资者等&lt;/font&gt;&lt;br&gt;&lt;/div&gt;&lt;/font&gt;&lt;/div&gt;" style="text;resizable=0;points=[];autosize=1;align=left;verticalAlign=top;spacingTop=-4;fontSize=16;fontFamily=Verdana;fontColor=#888888;html=1;" parent="1" vertex="1">
          <mxGeometry x="951.5" y="429" width="260" height="50" as="geometry" />
        </mxCell>
        <mxCell id="992" value="&lt;b&gt;&lt;font color=&quot;#000000&quot;&gt;用户需求分析&lt;/font&gt;&lt;/b&gt;" style="whiteSpace=wrap;html=1;strokeColor=none;fillColor=none;fontFamily=Verdana;fontSize=70;fontColor=#dddddd;align=left;" parent="1" vertex="1">
          <mxGeometry x="888" y="79" width="700" height="78" as="geometry" />
        </mxCell>
        <mxCell id="993" value="分析报告" style="text;html=1;resizable=0;points=[];autosize=1;align=left;verticalAlign=top;spacingTop=-4;fontSize=35;fontFamily=Verdana;fontColor=#888888;" parent="1" vertex="1">
          <mxGeometry x="892" y="163" width="160" height="50" as="geometry" />
        </mxCell>
        <mxCell id="994" value="&lt;div style=&quot;line-height: 150%&quot;&gt;代币交易者&lt;br&gt;&lt;/div&gt;" style="text;html=1;resizable=0;points=[];autosize=1;align=left;verticalAlign=top;spacingTop=-4;fontSize=24;fontFamily=Verdana;fontColor=#DDDDDD;fontStyle=1" parent="1" vertex="1">
          <mxGeometry x="1300" y="590" width="140" height="40" as="geometry" />
        </mxCell>
        <mxCell id="995" value="代币发行者" style="text;html=1;resizable=0;points=[];autosize=1;align=left;verticalAlign=top;spacingTop=-4;fontSize=24;fontFamily=Verdana;fontColor=#DDDDDD;fontStyle=1" parent="1" vertex="1">
          <mxGeometry x="948.9999999999999" y="875" width="140" height="40" as="geometry" />
        </mxCell>
        <mxCell id="996" value="&lt;div style=&quot;line-height: 150%&quot;&gt;钱包持有者和管理者&lt;/div&gt;" style="text;html=1;resizable=0;points=[];autosize=1;align=left;verticalAlign=top;spacingTop=-4;fontSize=24;fontFamily=Verdana;fontColor=#DDDDDD;fontStyle=1" parent="1" vertex="1">
          <mxGeometry x="1275" y="1102" width="240" height="40" as="geometry" />
        </mxCell>
        <mxCell id="997" value="&lt;div style=&quot;line-height: 150%&quot;&gt;撸毛群体用户&lt;/div&gt;" style="text;html=1;resizable=0;points=[];autosize=1;align=left;verticalAlign=top;spacingTop=-4;fontSize=24;fontFamily=Verdana;fontColor=#DDDDDD;fontStyle=1" parent="1" vertex="1">
          <mxGeometry x="948.9999999999999" y="1324" width="170" height="40" as="geometry" />
        </mxCell>
        <mxCell id="999" value="&lt;font color=&quot;#ffffff&quot;&gt;频繁进行NFT和ERC20代币交易的用户&lt;/font&gt;" style="text;html=1;resizable=0;points=[];autosize=1;align=left;verticalAlign=top;spacingTop=-4;fontSize=16;fontColor=#888888;fontFamily=Verdana;" parent="1" vertex="1">
          <mxGeometry x="1288" y="642.5" width="300" height="30" as="geometry" />
        </mxCell>
        <mxCell id="9CkZcXNKM_zDSKh3y4SI-1061" style="edgeStyle=orthogonalEdgeStyle;rounded=0;orthogonalLoop=1;jettySize=auto;html=1;entryX=0.161;entryY=-0.021;entryDx=0;entryDy=0;entryPerimeter=0;" edge="1" parent="1" target="1002">
          <mxGeometry relative="1" as="geometry">
            <mxPoint x="1059.5" y="985.9999999999995" as="sourcePoint" />
          </mxGeometry>
        </mxCell>
        <mxCell id="1002" value="&lt;font color=&quot;#ffffff&quot;&gt;简化的代币发行流程。发行者希望&lt;br&gt;能够通过平台提供的一键发行工具，&lt;br&gt;便捷地创建ERC20代币或NFT，&lt;br&gt;并将其推向市场&lt;/font&gt;" style="text;html=1;resizable=0;points=[];autosize=1;align=left;verticalAlign=top;spacingTop=-4;fontSize=16;fontColor=#888888;fontFamily=Verdana;" parent="1" vertex="1">
          <mxGeometry x="946" y="915" width="280" height="80" as="geometry" />
        </mxCell>
        <mxCell id="1003" value="&lt;font color=&quot;#ffffff&quot;&gt;用户需要进行钱包的批量转账和安全检测.&lt;br&gt;通过了解授权了哪些代币，&lt;br&gt;提取防范资产丢失风险&lt;br&gt;&lt;br&gt;用户也可以根据生日日期/特定号码/手机号&lt;br&gt;生成自己喜欢的虚荣地址&lt;br&gt;&lt;/font&gt;" style="text;html=1;resizable=0;points=[];autosize=1;align=left;verticalAlign=top;spacingTop=-4;fontSize=16;fontColor=#888888;fontFamily=Verdana;" parent="1" vertex="1">
          <mxGeometry x="1256" y="1151.5" width="330" height="120" as="geometry" />
        </mxCell>
        <mxCell id="1004" value="&lt;font color=&quot;#ffffff&quot;&gt;撸毛群体用户希望能够利用平台的批量功能，&lt;br&gt;如批量转账、批量空投和批量申请白名单，&lt;br&gt;提高操作效率和便利性。&lt;/font&gt;" style="text;html=1;resizable=0;points=[];autosize=1;align=left;verticalAlign=top;spacingTop=-4;fontSize=16;fontColor=#888888;fontFamily=Verdana;" parent="1" vertex="1">
          <mxGeometry x="920" y="1380" width="340" height="70" as="geometry" />
        </mxCell>
        <mxCell id="1006" value="&lt;font color=&quot;#fd8312&quot;&gt;Created with PinkRabbitTools Team&lt;/font&gt;" style="text;html=1;resizable=0;points=[];autosize=1;align=left;verticalAlign=top;spacingTop=-4;fontSize=16;fontColor=#888888;fontFamily=Verdana;" parent="1" vertex="1">
          <mxGeometry x="1310" y="1663.0000000000005" width="310" height="30" as="geometry" />
        </mxCell>
        <mxCell id="1007" value="" style="endArrow=oval;html=1;strokeColor=#666666;fontFamily=Verdana;fontSize=16;fontColor=#DDDDDD;endFill=1;rounded=1;endSize=6;startArrow=oval;startFill=1;strokeWidth=2;movable=1;resizable=1;rotatable=1;deletable=1;editable=1;connectable=1;" parent="1" edge="1">
          <mxGeometry width="50" height="50" relative="1" as="geometry">
            <mxPoint x="1169" y="717" as="sourcePoint" />
            <mxPoint x="1246" y="438" as="targetPoint" />
            <Array as="points">
              <mxPoint x="1082" y="717" />
              <mxPoint x="1082" y="527" />
              <mxPoint x="1246" y="527" />
            </Array>
          </mxGeometry>
        </mxCell>
        <mxCell id="1008" value="" style="endArrow=oval;html=1;strokeColor=#666666;fontFamily=Verdana;fontSize=16;fontColor=#DDDDDD;endFill=0;rounded=1;endSize=6;startArrow=oval;startFill=0;dashed=1;strokeWidth=2;dashPattern=1 1;" parent="1" edge="1">
          <mxGeometry x="1092" y="448" width="50" height="50" as="geometry">
            <mxPoint x="1091" y="663" as="sourcePoint" />
            <mxPoint x="1091" y="589" as="targetPoint" />
          </mxGeometry>
        </mxCell>
        <mxCell id="1009" value="" style="endArrow=none;html=1;strokeColor=#666666;fontFamily=Verdana;fontSize=16;fontColor=#DDDDDD;endFill=0;rounded=1;endSize=6;startArrow=none;startFill=0;strokeWidth=2;dashed=1;dashPattern=1 1;" parent="1" edge="1">
          <mxGeometry x="1059" y="444" width="50" height="50" as="geometry">
            <mxPoint x="1109" y="536" as="sourcePoint" />
            <mxPoint x="1254" y="514" as="targetPoint" />
            <Array as="points">
              <mxPoint x="1127" y="536" />
              <mxPoint x="1174" y="536" />
              <mxPoint x="1254" y="536" />
            </Array>
          </mxGeometry>
        </mxCell>
        <mxCell id="1010" value="" style="endArrow=oval;html=1;strokeColor=#666666;fontFamily=Verdana;fontSize=16;fontColor=#DDDDDD;endFill=1;rounded=1;endSize=6;startArrow=oval;startFill=1;strokeWidth=2;movable=1;resizable=1;rotatable=1;deletable=1;editable=1;connectable=1;" parent="1" edge="1">
          <mxGeometry x="1052" y="761" width="50" height="50" as="geometry">
            <mxPoint x="1290" y="925" as="sourcePoint" />
            <mxPoint x="1216" y="761" as="targetPoint" />
            <Array as="points">
              <mxPoint x="1337" y="925" />
              <mxPoint x="1337" y="824" />
              <mxPoint x="1216" y="824" />
            </Array>
          </mxGeometry>
        </mxCell>
        <mxCell id="1011" value="" style="endArrow=none;html=1;strokeColor=#666666;fontFamily=Verdana;fontSize=16;fontColor=#DDDDDD;endFill=0;rounded=1;endSize=6;startArrow=none;startFill=0;strokeWidth=2;dashed=1;dashPattern=1 1;" parent="1" edge="1">
          <mxGeometry x="1066" y="444" width="50" height="50" as="geometry">
            <mxPoint x="1329" y="898" as="sourcePoint" />
            <mxPoint x="1329" y="839" as="targetPoint" />
          </mxGeometry>
        </mxCell>
        <mxCell id="1012" value="" style="endArrow=none;html=1;strokeColor=#666666;fontFamily=Verdana;fontSize=16;fontColor=#DDDDDD;endFill=0;rounded=1;endSize=6;startArrow=none;startFill=0;strokeWidth=2;dashed=1;dashPattern=1 1;" parent="1" edge="1">
          <mxGeometry x="906" y="1004" width="50" height="50" as="geometry">
            <mxPoint x="1073" y="1154" as="sourcePoint" />
            <mxPoint x="1144" y="1028" as="targetPoint" />
            <Array as="points">
              <mxPoint x="1073" y="1028" />
            </Array>
          </mxGeometry>
        </mxCell>
        <mxCell id="1013" value="" style="endArrow=oval;html=1;strokeColor=#666666;fontFamily=Verdana;fontSize=16;fontColor=#DDDDDD;endFill=1;rounded=1;endSize=6;startArrow=oval;startFill=1;strokeWidth=2;movable=1;resizable=1;rotatable=1;deletable=1;editable=1;connectable=1;" parent="1" edge="1">
          <mxGeometry width="50" height="50" relative="1" as="geometry">
            <mxPoint x="1168" y="1210" as="sourcePoint" />
            <mxPoint x="1245" y="979" as="targetPoint" />
            <Array as="points">
              <mxPoint x="1081" y="1210" />
              <mxPoint x="1081" y="1035" />
              <mxPoint x="1245" y="1035" />
            </Array>
          </mxGeometry>
        </mxCell>
        <mxCell id="1014" value="" style="endArrow=oval;html=1;strokeColor=#666666;fontFamily=Verdana;fontSize=16;fontColor=#DDDDDD;endFill=1;rounded=1;endSize=6;startArrow=oval;startFill=1;strokeWidth=2;movable=1;resizable=1;rotatable=1;deletable=1;editable=1;connectable=1;" parent="1" edge="1">
          <mxGeometry x="1051" y="1256" width="50" height="50" as="geometry">
            <mxPoint x="1289" y="1430" as="sourcePoint" />
            <mxPoint x="1215" y="1256" as="targetPoint" />
            <Array as="points">
              <mxPoint x="1336" y="1430" />
              <mxPoint x="1336" y="1319" />
              <mxPoint x="1215" y="1319" />
            </Array>
          </mxGeometry>
        </mxCell>
        <mxCell id="1015" value="" style="endArrow=oval;html=1;strokeColor=#666666;fontFamily=Verdana;fontSize=16;fontColor=#DDDDDD;endFill=0;rounded=1;endSize=6;startArrow=oval;startFill=0;dashed=1;strokeWidth=2;dashPattern=1 1;" parent="1" edge="1">
          <mxGeometry x="1326" y="1204" width="50" height="50" as="geometry">
            <mxPoint x="1325" y="1406" as="sourcePoint" />
            <mxPoint x="1325" y="1345" as="targetPoint" />
          </mxGeometry>
        </mxCell>
        <mxCell id="1016" value="" style="group" parent="1" vertex="1" connectable="0">
          <mxGeometry x="1212" y="358" width="66" height="66" as="geometry" />
        </mxCell>
        <mxCell id="1017" value="" style="ellipse;whiteSpace=wrap;html=1;fillColor=none;fontFamily=Verdana;fontSize=16;fontColor=#DDDDDD;strokeColor=#666666;strokeWidth=2;" parent="1016" vertex="1">
          <mxGeometry width="66" height="66" as="geometry" />
        </mxCell>
        <mxCell id="1018" value="" style="ellipse;whiteSpace=wrap;html=1;fillColor=#666666;fontFamily=Verdana;fontSize=16;fontColor=#DDDDDD;strokeColor=none;" parent="1016" vertex="1">
          <mxGeometry x="4" y="4" width="58" height="58" as="geometry" />
        </mxCell>
        <mxCell id="1019" value="" style="group" parent="1" vertex="1" connectable="0">
          <mxGeometry x="1183" y="683" width="66" height="66" as="geometry" />
        </mxCell>
        <mxCell id="1020" value="" style="ellipse;whiteSpace=wrap;html=1;fillColor=none;fontFamily=Verdana;fontSize=16;fontColor=#DDDDDD;strokeColor=#666666;strokeWidth=2;" parent="1019" vertex="1">
          <mxGeometry width="66" height="66" as="geometry" />
        </mxCell>
        <mxCell id="1021" value="" style="ellipse;whiteSpace=wrap;html=1;fillColor=#666666;fontFamily=Verdana;fontSize=16;fontColor=#DDDDDD;strokeColor=none;" parent="1019" vertex="1">
          <mxGeometry x="4" y="4" width="58" height="58" as="geometry" />
        </mxCell>
        <mxCell id="1022" value="" style="group" parent="1" vertex="1" connectable="0">
          <mxGeometry x="1212" y="893" width="66" height="66" as="geometry" />
        </mxCell>
        <mxCell id="1023" value="" style="ellipse;whiteSpace=wrap;html=1;fillColor=none;fontFamily=Verdana;fontSize=16;fontColor=#DDDDDD;strokeColor=#666666;strokeWidth=2;" parent="1022" vertex="1">
          <mxGeometry width="66" height="66" as="geometry" />
        </mxCell>
        <mxCell id="1024" value="" style="ellipse;whiteSpace=wrap;html=1;fillColor=#666666;fontFamily=Verdana;fontSize=16;fontColor=#DDDDDD;strokeColor=none;" parent="1022" vertex="1">
          <mxGeometry x="4" y="4" width="58" height="58" as="geometry" />
        </mxCell>
        <mxCell id="1025" value="" style="group;fillColor=none;" parent="1" vertex="1" connectable="0">
          <mxGeometry x="1183" y="1177" width="66" height="66" as="geometry" />
        </mxCell>
        <mxCell id="1026" value="" style="ellipse;whiteSpace=wrap;html=1;fillColor=none;fontFamily=Verdana;fontSize=16;fontColor=#DDDDDD;strokeColor=#666666;strokeWidth=2;" parent="1025" vertex="1">
          <mxGeometry width="66" height="66" as="geometry" />
        </mxCell>
        <mxCell id="1027" value="" style="ellipse;whiteSpace=wrap;html=1;fillColor=#666666;fontFamily=Verdana;fontSize=16;fontColor=#DDDDDD;strokeColor=none;" parent="1025" vertex="1">
          <mxGeometry x="4" y="4" width="58" height="58" as="geometry" />
        </mxCell>
        <mxCell id="1028" value="" style="group" parent="1" vertex="1" connectable="0">
          <mxGeometry x="1212" y="1396" width="66" height="66" as="geometry" />
        </mxCell>
        <mxCell id="1029" value="" style="ellipse;whiteSpace=wrap;html=1;fillColor=none;fontFamily=Verdana;fontSize=16;fontColor=#DDDDDD;strokeColor=#666666;strokeWidth=2;" parent="1028" vertex="1">
          <mxGeometry width="66" height="66" as="geometry" />
        </mxCell>
        <mxCell id="1030" value="" style="ellipse;whiteSpace=wrap;html=1;fillColor=#666666;fontFamily=Verdana;fontSize=16;fontColor=#DDDDDD;strokeColor=none;" parent="1028" vertex="1">
          <mxGeometry x="4" y="4" width="58" height="58" as="geometry" />
        </mxCell>
        <mxCell id="1031" value="" style="whiteSpace=wrap;html=1;strokeColor=#282828;strokeWidth=1;fillColor=none;fontFamily=Verdana;fontSize=16;fontColor=#DDDDDD;dashed=1;" parent="1" vertex="1">
          <mxGeometry x="1228" y="909" width="33" height="34" as="geometry" />
        </mxCell>
        <mxCell id="1032" value="" style="endArrow=none;html=1;strokeColor=#282828;strokeWidth=1;fontFamily=Verdana;fontSize=16;fontColor=#DDDDDD;endFill=0;entryX=0.848;entryY=0.824;entryPerimeter=0;" parent="1" edge="1">
          <mxGeometry width="50" height="50" relative="1" as="geometry">
            <mxPoint x="1233" y="936" as="sourcePoint" />
            <mxPoint x="1256" y="936.010752688172" as="targetPoint" />
          </mxGeometry>
        </mxCell>
        <mxCell id="1033" value="" style="endArrow=none;html=1;strokeColor=#282828;strokeWidth=1;fontFamily=Verdana;fontSize=16;fontColor=#DDDDDD;endFill=0;entryX=0.848;entryY=0.824;entryPerimeter=0;" parent="1" edge="1">
          <mxGeometry width="50" height="50" relative="1" as="geometry">
            <mxPoint x="1233" y="932" as="sourcePoint" />
            <mxPoint x="1256" y="932.010752688172" as="targetPoint" />
          </mxGeometry>
        </mxCell>
        <mxCell id="1034" value="" style="whiteSpace=wrap;html=1;dashed=1;strokeColor=none;strokeWidth=1;fillColor=#282828;fontFamily=Verdana;fontSize=16;fontColor=#DDDDDD;" parent="1" vertex="1">
          <mxGeometry x="1233" y="914" width="23" height="12" as="geometry" />
        </mxCell>
        <mxCell id="1035" value="" style="whiteSpace=wrap;html=1;strokeColor=#282828;strokeWidth=1;fillColor=none;fontFamily=Verdana;fontSize=16;fontColor=#DDDDDD;dashed=1;" parent="1" vertex="1">
          <mxGeometry x="1229" y="1410" width="31" height="39" as="geometry" />
        </mxCell>
        <mxCell id="1036" value="" style="whiteSpace=wrap;html=1;dashed=1;strokeColor=none;strokeWidth=1;fillColor=#282828;fontFamily=Verdana;fontSize=16;fontColor=#DDDDDD;" parent="1" vertex="1">
          <mxGeometry x="1235" y="1415" width="8" height="8" as="geometry" />
        </mxCell>
        <mxCell id="1037" value="" style="whiteSpace=wrap;html=1;dashed=1;strokeColor=none;strokeWidth=1;fillColor=#282828;fontFamily=Verdana;fontSize=16;fontColor=#DDDDDD;" parent="1" vertex="1">
          <mxGeometry x="1246" y="1415" width="8" height="8" as="geometry" />
        </mxCell>
        <mxCell id="1038" value="" style="whiteSpace=wrap;html=1;dashed=1;strokeColor=none;strokeWidth=1;fillColor=#282828;fontFamily=Verdana;fontSize=16;fontColor=#DDDDDD;" parent="1" vertex="1">
          <mxGeometry x="1235" y="1426" width="8" height="8" as="geometry" />
        </mxCell>
        <mxCell id="1039" value="" style="whiteSpace=wrap;html=1;dashed=1;strokeColor=none;strokeWidth=1;fillColor=#282828;fontFamily=Verdana;fontSize=16;fontColor=#DDDDDD;" parent="1" vertex="1">
          <mxGeometry x="1235" y="1437" width="8" height="8" as="geometry" />
        </mxCell>
        <mxCell id="1040" value="" style="whiteSpace=wrap;html=1;dashed=1;strokeColor=none;strokeWidth=1;fillColor=#282828;fontFamily=Verdana;fontSize=16;fontColor=#DDDDDD;" parent="1" vertex="1">
          <mxGeometry x="1246" y="1426" width="8" height="19" as="geometry" />
        </mxCell>
        <mxCell id="1041" value="" style="html=1;verticalLabelPosition=bottom;labelBackgroundColor=#ffffff;verticalAlign=top;strokeWidth=2;strokeColor=#282828;fillColor=none;shadow=0;dashed=0;shape=mxgraph.ios7.icons.eye;fontFamily=Verdana;fontSize=16;fontColor=#DDDDDD;" parent="1" vertex="1">
          <mxGeometry x="1194" y="703.5" width="44" height="25" as="geometry" />
        </mxCell>
        <mxCell id="1042" value="" style="ellipse;whiteSpace=wrap;html=1;dashed=1;strokeColor=none;strokeWidth=1;fillColor=#282828;fontFamily=Verdana;fontSize=16;fontColor=#DDDDDD;" parent="1" vertex="1">
          <mxGeometry x="1205" y="705" width="22" height="22" as="geometry" />
        </mxCell>
        <mxCell id="1043" value="" style="ellipse;whiteSpace=wrap;html=1;dashed=1;strokeColor=none;strokeWidth=1;fillColor=#666666;fontFamily=Verdana;fontSize=16;fontColor=#DDDDDD;" parent="1" vertex="1">
          <mxGeometry x="1207" y="707" width="18" height="18" as="geometry" />
        </mxCell>
        <mxCell id="1044" value="" style="ellipse;whiteSpace=wrap;html=1;dashed=1;strokeColor=none;strokeWidth=1;fillColor=#282828;fontFamily=Verdana;fontSize=16;fontColor=#DDDDDD;" parent="1" vertex="1">
          <mxGeometry x="1208.5" y="708.5" width="15" height="15" as="geometry" />
        </mxCell>
        <mxCell id="1045" value="" style="endArrow=none;html=1;strokeColor=#282828;strokeWidth=3;fontFamily=Verdana;fontSize=16;fontColor=#DDDDDD;endFill=0;" parent="1" edge="1">
          <mxGeometry x="1223" y="392" width="50" height="50" as="geometry">
            <mxPoint x="1222" y="392" as="sourcePoint" />
            <mxPoint x="1234" y="392" as="targetPoint" />
          </mxGeometry>
        </mxCell>
        <mxCell id="1046" value="" style="endArrow=none;html=1;strokeColor=#282828;strokeWidth=3;fontFamily=Verdana;fontSize=16;fontColor=#DDDDDD;endFill=0;" parent="1" edge="1">
          <mxGeometry x="1240" y="394" width="50" height="50" as="geometry">
            <mxPoint x="1239" y="394" as="sourcePoint" />
            <mxPoint x="1251" y="394" as="targetPoint" />
          </mxGeometry>
        </mxCell>
        <mxCell id="1047" value="" style="endArrow=none;html=1;strokeColor=#282828;strokeWidth=3;fontFamily=Verdana;fontSize=16;fontColor=#DDDDDD;endFill=0;" parent="1" edge="1">
          <mxGeometry x="1240" y="389" width="50" height="50" as="geometry">
            <mxPoint x="1239" y="389" as="sourcePoint" />
            <mxPoint x="1251" y="389" as="targetPoint" />
          </mxGeometry>
        </mxCell>
        <mxCell id="1048" value="" style="endArrow=none;html=1;strokeColor=#282828;strokeWidth=3;fontFamily=Verdana;fontSize=16;fontColor=#DDDDDD;endFill=0;" parent="1" edge="1">
          <mxGeometry x="1257" y="392" width="50" height="50" as="geometry">
            <mxPoint x="1256" y="392" as="sourcePoint" />
            <mxPoint x="1268" y="392" as="targetPoint" />
          </mxGeometry>
        </mxCell>
        <mxCell id="1049" value="" style="endArrow=none;html=1;strokeColor=#282828;strokeWidth=3;fontFamily=Verdana;fontSize=16;fontColor=#DDDDDD;endFill=0;rotation=0;" parent="1" edge="1">
          <mxGeometry x="1256" y="393" width="50" height="50" as="geometry">
            <mxPoint x="1262" y="387" as="sourcePoint" />
            <mxPoint x="1262" y="398" as="targetPoint" />
          </mxGeometry>
        </mxCell>
        <mxCell id="1050" value="" style="ellipse;whiteSpace=wrap;html=1;dashed=1;strokeColor=none;strokeWidth=1;fillColor=#282828;fontFamily=Verdana;fontSize=16;fontColor=#DDDDDD;" parent="1" vertex="1">
          <mxGeometry x="1206" y="1199" width="5" height="5" as="geometry" />
        </mxCell>
        <mxCell id="1051" value="" style="ellipse;whiteSpace=wrap;html=1;dashed=1;strokeColor=none;strokeWidth=1;fillColor=#282828;fontFamily=Verdana;fontSize=16;fontColor=#DDDDDD;" parent="1" vertex="1">
          <mxGeometry x="1228" y="1203" width="5" height="5" as="geometry" />
        </mxCell>
        <mxCell id="1052" value="" style="ellipse;whiteSpace=wrap;html=1;dashed=1;strokeColor=none;strokeWidth=1;fillColor=#282828;fontFamily=Verdana;fontSize=16;fontColor=#DDDDDD;" parent="1" vertex="1">
          <mxGeometry x="1221" y="1216" width="5" height="5" as="geometry" />
        </mxCell>
        <mxCell id="1053" value="" style="ellipse;whiteSpace=wrap;html=1;dashed=1;strokeColor=none;strokeWidth=1;fillColor=#282828;fontFamily=Verdana;fontSize=16;fontColor=#DDDDDD;" parent="1" vertex="1">
          <mxGeometry x="1199" y="1212" width="5" height="5" as="geometry" />
        </mxCell>
        <mxCell id="1054" value="" style="shape=hexagon;perimeter=hexagonPerimeter;whiteSpace=wrap;html=1;strokeColor=#282828;strokeWidth=1;fillColor=none;fontFamily=Verdana;fontSize=16;fontColor=#DDDDDD;direction=south;" parent="1" vertex="1">
          <mxGeometry x="1201" y="1201" width="15" height="18" as="geometry" />
        </mxCell>
        <mxCell id="1055" value="" style="shape=hexagon;perimeter=hexagonPerimeter;whiteSpace=wrap;html=1;strokeColor=#282828;strokeWidth=1;fillColor=none;fontFamily=Verdana;fontSize=16;fontColor=#DDDDDD;direction=south;" parent="1" vertex="1">
          <mxGeometry x="1216" y="1201" width="15" height="18" as="geometry" />
        </mxCell>
        <mxCell id="1056" value="" style="endArrow=none;html=1;strokeColor=#282828;strokeWidth=1;fontFamily=Verdana;fontSize=16;fontColor=#DDDDDD;endFill=0;" parent="1" edge="1">
          <mxGeometry width="50" height="50" relative="1" as="geometry">
            <mxPoint x="1223" y="1193" as="sourcePoint" />
            <mxPoint x="1223.2399355124335" y="1201.1578074227382" as="targetPoint" />
          </mxGeometry>
        </mxCell>
        <mxCell id="1057" value="" style="endArrow=none;html=1;strokeColor=#282828;strokeWidth=1;fontFamily=Verdana;fontSize=16;fontColor=#DDDDDD;endFill=0;" parent="1" edge="1">
          <mxGeometry width="50" height="50" relative="1" as="geometry">
            <mxPoint x="1209" y="1219" as="sourcePoint" />
            <mxPoint x="1209" y="1227" as="targetPoint" />
          </mxGeometry>
        </mxCell>
        <mxCell id="1058" value="" style="endArrow=none;html=1;strokeColor=#282828;strokeWidth=1;fontFamily=Verdana;fontSize=16;fontColor=#DDDDDD;endFill=0;" parent="1" edge="1">
          <mxGeometry width="50" height="50" relative="1" as="geometry">
            <mxPoint x="1231" y="1214" as="sourcePoint" />
            <mxPoint x="1237" y="1218" as="targetPoint" />
          </mxGeometry>
        </mxCell>
        <mxCell id="1059" value="" style="endArrow=none;html=1;strokeColor=#282828;strokeWidth=1;fontFamily=Verdana;fontSize=16;fontColor=#DDDDDD;endFill=0;" parent="1" edge="1">
          <mxGeometry width="50" height="50" relative="1" as="geometry">
            <mxPoint x="1195" y="1202" as="sourcePoint" />
            <mxPoint x="1201" y="1206" as="targetPoint" />
          </mxGeometry>
        </mxCell>
        <mxCell id="9CkZcXNKM_zDSKh3y4SI-1060" value="&lt;font color=&quot;#ffffff&quot;&gt;用户期望能够使用平台提供的批量转账&lt;br&gt;和代币抢购功能，以提高交易效率，&lt;br&gt;并能够及时参与到感兴趣的项目中&lt;/font&gt;" style="text;html=1;resizable=0;points=[];autosize=1;align=left;verticalAlign=top;spacingTop=-4;fontSize=16;fontColor=#888888;fontFamily=Verdana;" vertex="1" parent="1">
          <mxGeometry x="1286" y="679" width="300" height="70" as="geometry" />
        </mxCell>
      </root>
    </mxGraphModel>
  </diagram>
</mxfile>
